<svg width="425" height="459" viewBox="0 0 425 459" fill="none" xmlns="http://www.w3.org/2000/svg">
<g clip-path="url(#clip0_3704_48445)">
<path d="M424.21 128.49C424.21 112.62 411.35 99.76 395.48 99.76C382.68 99.76 371.84 108.13 368.13 119.7C367.67 119.4 367.22 119.09 366.76 118.81C356.204 112.016 344.627 106.958 332.47 103.83C327.302 102.479 322.046 101.49 316.74 100.87C315.71 100.74 314.68 100.64 313.66 100.53C310.03 100.19 306.36 100.03 302.63 100.03C297.26 100.03 291.97 100.39 286.79 101.1C286.64 101.1 286.52 101.12 286.37 101.14C285.74 101.22 285.13 101.31 284.5 101.39C283.54 101.54 282.57 101.7 281.61 101.89H281.57C269.95 104.11 258.94 107.99 248.76 113.3C245.36 115.04 242.11 116.93 238.9 119.03C238.77 119.11 238.65 119.2 238.52 119.26C238.14 119.49 237.79 119.74 237.39 119.97C237.08 120.22 236.76 120.43 236.45 120.6C236.18 120.85 235.86 121.02 235.55 121.27C234.053 122.267 232.592 123.318 231.17 124.42C230.9 124.63 230.69 124.84 230.44 125.01C226.25 128.14 222.2 131.45 218.48 135.12C211.47 142.06 205.39 149.82 200.27 158.4C199.87 159.07 199.47 159.74 199.1 160.41C198.72 161.08 198.34 161.77 197.99 162.44C197.95 162.5 197.91 162.54 197.86 162.61C197.86 162.63 197.84 162.67 197.82 162.69C197.8 162.71 197.78 162.73 197.78 162.77C197.76 162.83 197.72 162.87 197.7 162.94C197.32 163.65 196.94 164.37 196.59 165.08C196.21 165.79 195.86 166.53 195.5 167.26C195.14 167.99 194.81 168.73 194.47 169.46C194.37 169.63 194.28 169.77 194.24 169.94C193.82 170.8 193.44 171.68 193.07 172.56C192.67 173.48 192.29 174.41 191.92 175.35C186.61 188.84 183.68 203.56 183.68 218.96C183.68 226.57 184.39 234.02 185.78 241.26C185.86 241.66 185.93 242.04 186.01 242.43C186.22 243.44 186.43 244.44 186.64 245.43C186.64 245.45 186.66 245.45 186.66 245.47C187 246.98 187.37 248.49 187.79 250C187.96 250.65 188.15 251.32 188.34 251.97C188.57 252.83 188.82 253.67 189.09 254.51L189.78 256.65C190.03 257.38 190.28 258.12 190.54 258.83C190.58 258.96 190.62 259.1 190.69 259.23C191.19 260.66 191.74 262.08 192.3 263.49C193.31 266.03 194.42 268.5 195.61 270.94C195.88 271.53 196.18 272.11 196.47 272.68C197.64 275.01 198.88 277.27 200.22 279.5V279.52C200.26 279.58 200.28 279.62 200.32 279.69C200.93 280.72 201.56 281.75 202.19 282.73C203.24 284.39 204.33 286 205.44 287.6C205.44 287.6 205.46 287.6 205.46 287.62L217.27 301.82C218.636 303.124 220.044 304.385 221.49 305.6C222.43 306.39 223.38 307.16 224.34 307.92C245.26 326.23 272.64 337.35 302.63 337.35C307.54 337.35 312.38 337.05 317.14 336.47V245.54V245.58C317.02 245.64 316.89 245.7 316.77 245.77C312.95 247.64 308.67 248.66 304.14 248.66C303.53 248.66 302.9 248.64 302.29 248.58C301.83 248.56 301.39 248.54 300.95 248.48C300.76 248.48 300.57 248.46 300.38 248.42C300.169 248.403 299.959 248.376 299.75 248.34C285.78 246.41 275.04 234.41 275.04 219.9C275.04 219.35 275.06 218.81 275.1 218.26C275.08 218.24 275.1 218.22 275.1 218.22C275.52 210.65 278.88 203.87 284.06 199.03C287.96 195.34 292.87 192.74 298.32 191.71C300.08 191.35 301.89 191.19 303.75 191.19C304.42 191.19 305.07 191.21 305.72 191.27C306.14 191.27 306.54 191.31 306.94 191.37C307.34 191.39 307.74 191.45 308.14 191.52C310.97 191.9 313.68 192.72 316.15 193.89H316.25C316.25 193.89 316.33 193.91 316.38 193.93C316.51 193.99 316.63 194.03 316.76 194.1C316.91 194.16 317.03 194.25 317.14 194.31C317.91 194.7 318.67 195.13 319.4 195.59C327.69 200.79 332.5 210.1 332.5 219.89V310.56C332.5 321.16 329.54 331.58 323.73 340.45C315.86 352.48 301.7 365.69 277.47 365.69C264.65 365.69 252.69 361.87 243.25 354.61C243.21 354.61 243.19 354.59 243.17 354.57C241.553 353.335 240.014 352.003 238.56 350.58V447.55C248.33 451.72 258.72 454.79 269.52 456.51C271.07 456.76 272.62 456.99 274.18 457.18C275.29 457.31 276.42 457.45 277.56 457.56C277.83 457.6 278.11 457.62 278.38 457.64C280.23 457.81 282.07 457.95 283.94 458.06C284.09 458.06 284.23 458.06 284.4 458.08C286.69 458.21 288.99 458.27 291.32 458.27C300.05 458.27 308.52 457.45 316.78 455.75L317.16 455.69C322.38 454.73 327.56 453.4 332.51 451.75C332.64 451.71 332.76 451.67 332.89 451.62C345.1 447.63 356.49 441.95 366.81 434.8C366.96 434.72 367.08 434.63 367.23 434.53C371.24 431.75 375.09 428.76 378.76 425.58C407.98 400.22 424.26 363.07 424.26 324.38V128.48L424.21 128.49ZM167.22 1.51V116.01C163.26 113.93 158.77 112.78 154.01 112.78C145.2 112.78 137.33 116.72 132.07 122.95C132.05 122.97 132.03 122.99 132.03 123.01C127.657 128.173 125.264 134.724 125.28 141.49V331.32H0V145.86C0 118.15 7.7 92.23 21.06 70.1C21.56 69.28 22.07 68.46 22.57 67.67C44.8 33.02 81.22 8.31 123.61 1.76C124.16 1.68 124.72 1.59 125.27 1.51C132.11 0.5 139.11 0 146.25 0C153.39 0 160.39 0.5 167.23 1.51H167.22Z" fill="white"/>
</g>
<defs>
<clipPath id="clip0_3704_48445">
<rect width="424.21" height="458.25" fill="white"/>
</clipPath>
</defs>
</svg>
