<svg width="629" height="315" viewBox="0 0 629 315" fill="none" xmlns="http://www.w3.org/2000/svg">
<g clip-path="url(#clip0_3709_44267)">
<path d="M13.15 262.85H0.25V218H13.15C16.32 218 19.27 218.59 21.98 219.76C24.69 220.93 27.04 222.6 29.02 224.76C30.91 226.83 32.35 229.2 33.37 231.87C34.38 234.54 34.89 237.37 34.89 240.36C34.89 243.35 34.38 246.18 33.37 248.85C32.36 251.52 30.91 253.91 29.02 256.02C27.04 258.23 24.7 259.92 21.98 261.09C19.27 262.26 16.32 262.85 13.15 262.85ZM3.36 259.74H13.16C18.73 259.74 23.26 257.79 26.75 253.88C28.36 252.13 29.59 250.1 30.44 247.77C31.29 245.45 31.72 242.97 31.72 240.35C31.72 237.73 31.29 235.33 30.44 233C29.59 230.68 28.36 228.64 26.75 226.89C23.21 223.07 18.68 221.16 13.16 221.16H3.36V259.73V259.74Z" fill="white"/>
<path d="M13.15 262.85H0.25V218H13.15C16.32 218 19.27 218.59 21.98 219.76C24.69 220.93 27.04 222.6 29.02 224.76C30.91 226.83 32.35 229.2 33.37 231.87C34.38 234.54 34.89 237.37 34.89 240.36C34.89 243.35 34.38 246.18 33.37 248.85C32.36 251.52 30.91 253.91 29.02 256.02C27.04 258.23 24.7 259.92 21.98 261.09C19.27 262.26 16.32 262.85 13.15 262.85ZM3.36 259.74H13.16C18.73 259.74 23.26 257.79 26.75 253.88C28.36 252.13 29.59 250.1 30.44 247.77C31.29 245.45 31.72 242.97 31.72 240.35C31.72 237.73 31.29 235.33 30.44 233C29.59 230.68 28.36 228.64 26.75 226.89C23.21 223.07 18.68 221.16 13.16 221.16H3.36V259.73V259.74Z" stroke="white" stroke-width="0.5" stroke-miterlimit="10"/>
<path d="M59.5905 218H56.4805V262.85H59.5905V218Z" fill="white"/>
<path d="M59.5905 218H56.4805V262.85H59.5905V218Z" stroke="white" stroke-width="0.5" stroke-miterlimit="10"/>
<path d="M84.0117 262.85V218H113.062V221.17H87.1217V238.84H107.342V242.01H87.1217V259.61H113.062V262.85H84.0117Z" fill="white"/>
<path d="M84.0117 262.85V218H113.062V221.17H87.1217V238.84H107.342V242.01H87.1217V259.61H113.062V262.85H84.0117Z" stroke="white" stroke-width="0.5" stroke-miterlimit="10"/>
<path d="M171.231 262.849H155.011C150.911 262.849 147.141 261.839 143.691 259.809C140.241 257.789 137.501 255.039 135.481 251.569C133.461 248.099 132.441 244.289 132.441 240.149C132.441 236.009 133.451 232.269 135.481 228.799C137.501 225.329 140.241 222.569 143.691 220.519C147.141 218.469 150.911 217.449 155.011 217.449C158.141 217.449 161.141 218.089 164.021 219.379C166.891 220.669 169.391 222.459 171.511 224.759L169.231 226.899C167.391 224.919 165.231 223.389 162.741 222.309C160.261 221.229 157.681 220.689 155.011 220.689C151.511 220.689 148.271 221.559 145.281 223.309C142.291 225.059 139.921 227.419 138.171 230.379C136.421 233.349 135.551 236.599 135.551 240.139C135.551 243.679 136.421 246.949 138.171 249.939C139.921 252.929 142.291 255.309 145.281 257.079C148.271 258.849 151.511 259.739 155.011 259.739H167.981V243.659H153.211V240.549H171.221V262.839L171.231 262.849Z" fill="white"/>
<path d="M171.231 262.849H155.011C150.911 262.849 147.141 261.839 143.691 259.809C140.241 257.789 137.501 255.039 135.481 251.569C133.461 248.099 132.441 244.289 132.441 240.149C132.441 236.009 133.451 232.269 135.481 228.799C137.501 225.329 140.241 222.569 143.691 220.519C147.141 218.469 150.911 217.449 155.011 217.449C158.141 217.449 161.141 218.089 164.021 219.379C166.891 220.669 169.391 222.459 171.511 224.759L169.231 226.899C167.391 224.919 165.231 223.389 162.741 222.309C160.261 221.229 157.681 220.689 155.011 220.689C151.511 220.689 148.271 221.559 145.281 223.309C142.291 225.059 139.921 227.419 138.171 230.379C136.421 233.349 135.551 236.599 135.551 240.139C135.551 243.679 136.421 246.949 138.171 249.939C139.921 252.929 142.291 255.309 145.281 257.079C148.271 258.849 151.511 259.739 155.011 259.739H167.981V243.659H153.211V240.549H171.221V262.839L171.231 262.849Z" stroke="white" stroke-width="0.5" stroke-miterlimit="10"/>
<path d="M214.351 263.33C210.251 263.33 206.461 262.31 202.961 260.26C199.461 258.21 196.701 255.43 194.681 251.91C192.661 248.39 191.641 244.56 191.641 240.42C191.641 236.28 192.651 232.45 194.681 228.93C196.701 225.41 199.461 222.63 202.961 220.58C206.451 218.53 210.251 217.51 214.351 217.51C218.451 217.51 222.241 218.53 225.731 220.58C229.221 222.63 231.991 225.41 234.011 228.93C236.031 232.45 237.051 236.28 237.051 240.42C237.051 244.56 236.041 248.39 234.011 251.91C231.991 255.43 229.221 258.21 225.731 260.26C222.231 262.31 218.441 263.33 214.351 263.33ZM214.351 220.69C210.811 220.69 207.541 221.58 204.551 223.35C201.561 225.12 199.181 227.51 197.411 230.53C195.641 233.54 194.751 236.84 194.751 240.43C194.751 244.02 195.631 247.32 197.411 250.33C199.181 253.34 201.561 255.74 204.551 257.51C207.541 259.28 210.811 260.17 214.351 260.17C217.891 260.17 221.161 259.28 224.151 257.51C227.141 255.74 229.511 253.35 231.261 250.33C233.011 247.32 233.881 244.02 233.881 240.43C233.881 236.84 233.011 233.54 231.261 230.53C229.511 227.52 227.141 225.13 224.151 223.35C221.161 221.58 217.891 220.69 214.351 220.69Z" fill="white"/>
<path d="M214.351 263.33C210.251 263.33 206.461 262.31 202.961 260.26C199.461 258.21 196.701 255.43 194.681 251.91C192.661 248.39 191.641 244.56 191.641 240.42C191.641 236.28 192.651 232.45 194.681 228.93C196.701 225.41 199.461 222.63 202.961 220.58C206.451 218.53 210.251 217.51 214.351 217.51C218.451 217.51 222.241 218.53 225.731 220.58C229.221 222.63 231.991 225.41 234.011 228.93C236.031 232.45 237.051 236.28 237.051 240.42C237.051 244.56 236.041 248.39 234.011 251.91C231.991 255.43 229.221 258.21 225.731 260.26C222.231 262.31 218.441 263.33 214.351 263.33ZM214.351 220.69C210.811 220.69 207.541 221.58 204.551 223.35C201.561 225.12 199.181 227.51 197.411 230.53C195.641 233.54 194.751 236.84 194.751 240.43C194.751 244.02 195.631 247.32 197.411 250.33C199.181 253.34 201.561 255.74 204.551 257.51C207.541 259.28 210.811 260.17 214.351 260.17C217.891 260.17 221.161 259.28 224.151 257.51C227.141 255.74 229.511 253.35 231.261 250.33C233.011 247.32 233.881 244.02 233.881 240.43C233.881 236.84 233.011 233.54 231.261 230.53C229.511 227.52 227.141 225.13 224.151 223.35C221.161 221.58 217.891 220.69 214.351 220.69Z" stroke="white" stroke-width="0.5" stroke-miterlimit="10"/>
<path d="M307.639 255.88L324.619 218H328.069L307.639 263.61L287.289 218H290.669L307.639 255.88Z" fill="white"/>
<path d="M307.639 255.88L324.619 218H328.069L307.639 263.61L287.289 218H290.669L307.639 255.88Z" stroke="white" stroke-width="0.5" stroke-miterlimit="10"/>
<path d="M352.069 218H348.969V262.85H352.069V218Z" fill="white"/>
<path d="M352.069 218H348.969V262.85H352.069V218Z" stroke="white" stroke-width="0.5" stroke-miterlimit="10"/>
<path d="M396.372 263.329C392.272 263.329 388.482 262.299 384.982 260.229C381.482 258.159 378.722 255.359 376.702 251.849C374.682 248.329 373.672 244.499 373.672 240.359C373.672 236.219 374.682 232.399 376.702 228.909C378.722 225.419 381.482 222.629 384.982 220.559C388.472 218.489 392.272 217.449 396.372 217.449C399.542 217.449 402.592 218.109 405.512 219.419C408.432 220.729 411.002 222.579 413.202 224.979L410.782 227.119C408.942 225.049 406.772 223.439 404.262 222.289C401.752 221.139 399.122 220.569 396.362 220.569C392.822 220.569 389.552 221.459 386.562 223.229C383.572 224.999 381.192 227.399 379.422 230.439C377.652 233.479 376.762 236.789 376.762 240.369C376.762 243.949 377.642 247.269 379.422 250.309C381.192 253.349 383.572 255.749 386.562 257.519C389.552 259.289 392.822 260.179 396.362 260.179C399.302 260.179 402.102 259.539 404.742 258.249C407.382 256.959 409.652 255.169 411.542 252.869L414.022 254.799C411.862 257.519 409.242 259.619 406.152 261.109C403.072 262.609 399.802 263.349 396.352 263.349" fill="white"/>
<path d="M396.372 263.329C392.272 263.329 388.482 262.299 384.982 260.229C381.482 258.159 378.722 255.359 376.702 251.849C374.682 248.329 373.672 244.499 373.672 240.359C373.672 236.219 374.682 232.399 376.702 228.909C378.722 225.419 381.482 222.629 384.982 220.559C388.472 218.489 392.272 217.449 396.372 217.449C399.542 217.449 402.592 218.109 405.512 219.419C408.432 220.729 411.002 222.579 413.202 224.979L410.782 227.119C408.942 225.049 406.772 223.439 404.262 222.289C401.752 221.139 399.122 220.569 396.362 220.569C392.822 220.569 389.552 221.459 386.562 223.229C383.572 224.999 381.192 227.399 379.422 230.439C377.652 233.479 376.762 236.789 376.762 240.369C376.762 243.949 377.642 247.269 379.422 250.309C381.192 253.349 383.572 255.749 386.562 257.519C389.552 259.289 392.822 260.179 396.362 260.179C399.302 260.179 402.102 259.539 404.742 258.249C407.382 256.959 409.652 255.169 411.542 252.869L414.022 254.799C411.862 257.519 409.242 259.619 406.152 261.109C403.072 262.609 399.802 263.349 396.352 263.349L396.372 263.329Z" stroke="white" stroke-width="0.5" stroke-miterlimit="10"/>
<path d="M434.461 262.85V218H463.511V221.17H437.561V238.84H457.781V242.01H437.561V259.61H463.511V262.85H434.461Z" fill="white"/>
<path d="M434.461 262.85V218H463.511V221.17H437.561V238.84H457.781V242.01H437.561V259.61H463.511V262.85H434.461Z" stroke="white" stroke-width="0.5" stroke-miterlimit="10"/>
<path d="M488.83 226.419V262.849H485.73V217.449L516.78 254.569V217.999H519.88V263.609L488.83 226.419Z" fill="white"/>
<path d="M488.83 226.419V262.849H485.73V217.449L516.78 254.569V217.999H519.88V263.609L488.83 226.419Z" stroke="white" stroke-width="0.5" stroke-miterlimit="10"/>
<path d="M578.601 218V221.17H560.871V262.85H557.691V221.17H539.891V218H578.601Z" fill="white"/>
<path d="M578.601 218V221.17H560.871V262.85H557.691V221.17H539.891V218H578.601Z" stroke="white" stroke-width="0.5" stroke-miterlimit="10"/>
<path d="M598.961 262.85V218H628.001V221.17H602.061V238.84H622.281V242.01H602.061V259.61H628.001V262.85H598.961Z" fill="white"/>
<path d="M598.961 262.85V218H628.001V221.17H602.061V238.84H622.281V242.01H602.061V259.61H628.001V262.85H598.961Z" stroke="white" stroke-width="0.5" stroke-miterlimit="10"/>
<path d="M199.199 313.5V294H211.829V295.38H200.549V303.06H209.339V304.44H200.549V312.09H211.829V313.5H199.199Z" fill="white"/>
<path d="M199.199 313.5V294H211.829V295.38H200.549V303.06H209.339V304.44H200.549V312.09H211.829V313.5H199.199Z" stroke="white" stroke-miterlimit="10"/>
<path d="M241.07 305.96C241.58 306.71 241.83 307.52 241.83 308.38C241.83 309.12 241.65 309.82 241.29 310.49C240.93 311.16 240.41 311.75 239.73 312.25C238.33 313.25 236.7 313.75 234.84 313.75C233.92 313.75 233.04 313.62 232.2 313.36C231.36 313.1 230.61 312.73 229.95 312.25C228.81 311.41 228.12 310.38 227.88 309.16L229.17 308.44C229.23 309.54 229.77 310.44 230.79 311.14C231.31 311.54 231.92 311.84 232.62 312.06C233.32 312.27 234.06 312.37 234.84 312.37C236.44 312.37 237.79 311.96 238.89 311.14C239.95 310.36 240.48 309.44 240.48 308.38C240.48 307.76 240.28 307.18 239.9 306.64C239.51 306.1 238.97 305.64 238.26 305.26C237.6 304.92 236.42 304.65 234.72 304.45C234.58 304.43 234.07 304.35 233.2 304.21C232.33 304.07 231.59 303.85 230.97 303.55C229.99 303.07 229.22 302.44 228.66 301.65C228.1 300.86 227.82 300 227.82 299.08C227.82 298.34 228 297.65 228.38 296.99C228.75 296.34 229.27 295.77 229.95 295.27C230.61 294.79 231.36 294.42 232.2 294.16C233.04 293.9 233.92 293.77 234.84 293.77C236.7 293.77 238.33 294.27 239.73 295.27C240.89 296.15 241.57 297.17 241.77 298.33L240.48 299.05C240.46 298.55 240.32 298.07 240.05 297.61C239.78 297.15 239.4 296.73 238.9 296.35C238.36 295.95 237.74 295.65 237.04 295.43C236.34 295.22 235.61 295.11 234.85 295.11C234.09 295.11 233.36 295.22 232.64 295.43C231.93 295.64 231.32 295.94 230.79 296.35C230.27 296.73 229.87 297.15 229.59 297.62C229.31 298.09 229.17 298.58 229.17 299.08C229.17 299.7 229.4 300.31 229.86 300.93C230.32 301.54 230.89 302.01 231.57 302.35C231.99 302.55 232.46 302.7 232.97 302.78C233.48 302.87 234.13 302.96 234.93 303.07C235.07 303.09 235.42 303.14 235.98 303.22C236.54 303.3 237.08 303.41 237.6 303.55C238.12 303.69 238.56 303.86 238.92 304.06C239.84 304.58 240.56 305.21 241.07 305.96Z" fill="white"/>
<path d="M241.07 305.96C241.58 306.71 241.83 307.52 241.83 308.38C241.83 309.12 241.65 309.82 241.29 310.49C240.93 311.16 240.41 311.75 239.73 312.25C238.33 313.25 236.7 313.75 234.84 313.75C233.92 313.75 233.04 313.62 232.2 313.36C231.36 313.1 230.61 312.73 229.95 312.25C228.81 311.41 228.12 310.38 227.88 309.16L229.17 308.44C229.23 309.54 229.77 310.44 230.79 311.14C231.31 311.54 231.92 311.84 232.62 312.06C233.32 312.27 234.06 312.37 234.84 312.37C236.44 312.37 237.79 311.96 238.89 311.14C239.95 310.36 240.48 309.44 240.48 308.38C240.48 307.76 240.28 307.18 239.9 306.64C239.51 306.1 238.97 305.64 238.26 305.26C237.6 304.92 236.42 304.65 234.72 304.45C234.58 304.43 234.07 304.35 233.2 304.21C232.33 304.07 231.59 303.85 230.97 303.55C229.99 303.07 229.22 302.44 228.66 301.65C228.1 300.86 227.82 300 227.82 299.08C227.82 298.34 228 297.65 228.38 296.99C228.75 296.34 229.27 295.77 229.95 295.27C230.61 294.79 231.36 294.42 232.2 294.16C233.04 293.9 233.92 293.77 234.84 293.77C236.7 293.77 238.33 294.27 239.73 295.27C240.89 296.15 241.57 297.17 241.77 298.33L240.48 299.05C240.46 298.55 240.32 298.07 240.05 297.61C239.78 297.15 239.4 296.73 238.9 296.35C238.36 295.95 237.74 295.65 237.04 295.43C236.34 295.22 235.61 295.11 234.85 295.11C234.09 295.11 233.36 295.22 232.64 295.43C231.93 295.64 231.32 295.94 230.79 296.35C230.27 296.73 229.87 297.15 229.59 297.62C229.31 298.09 229.17 298.58 229.17 299.08C229.17 299.7 229.4 300.31 229.86 300.93C230.32 301.54 230.89 302.01 231.57 302.35C231.99 302.55 232.46 302.7 232.97 302.78C233.48 302.87 234.13 302.96 234.93 303.07C235.07 303.09 235.42 303.14 235.98 303.22C236.54 303.3 237.08 303.41 237.6 303.55C238.12 303.69 238.56 303.86 238.92 304.06C239.84 304.58 240.56 305.21 241.07 305.96Z" stroke="white" stroke-miterlimit="10"/>
<path d="M273.721 294V295.38H266.011V313.5H264.631V295.38H256.891V294H273.721Z" fill="white"/>
<path d="M273.721 294V295.38H266.011V313.5H264.631V295.38H256.891V294H273.721Z" stroke="white" stroke-miterlimit="10"/>
<path d="M290.07 313.5V294H302.7V295.38H291.42V303.06H300.21V304.44H291.42V312.09H302.7V313.5H290.07ZM297.21 288.96H299.67L296.31 291.99H294.75L297.21 288.96Z" fill="white"/>
<path d="M290.07 313.5V294H302.7V295.38H291.42V303.06H300.21V304.44H291.42V312.09H302.7V313.5H290.07ZM297.21 288.96H299.67L296.31 291.99H294.75L297.21 288.96Z" stroke="white" stroke-miterlimit="10"/>
<path d="M336.15 294V295.38H328.44V313.5H327.06V295.38H319.32V294H336.15Z" fill="white"/>
<path d="M336.15 294V295.38H328.44V313.5H327.06V295.38H319.32V294H336.15Z" stroke="white" stroke-miterlimit="10"/>
<path d="M354.209 294H352.859V313.5H354.209V294Z" fill="white"/>
<path d="M354.209 294H352.859V313.5H354.209V294Z" stroke="white" stroke-miterlimit="10"/>
<path d="M380.972 313.71C379.192 313.71 377.542 313.26 376.022 312.36C374.502 311.46 373.302 310.25 372.422 308.72C371.542 307.19 371.102 305.53 371.102 303.73C371.102 301.93 371.542 300.27 372.422 298.75C373.302 297.23 374.502 296.02 376.022 295.12C377.542 294.22 379.192 293.77 380.972 293.77C382.352 293.77 383.672 294.06 384.952 294.63C386.222 295.2 387.332 296.01 388.292 297.04L387.242 297.97C386.442 297.07 385.492 296.37 384.402 295.87C383.312 295.37 382.162 295.12 380.962 295.12C379.422 295.12 378.002 295.51 376.702 296.28C375.402 297.05 374.362 298.09 373.592 299.41C372.822 300.73 372.442 302.17 372.442 303.73C372.442 305.29 372.832 306.73 373.592 308.05C374.362 309.37 375.392 310.41 376.702 311.19C378.002 311.96 379.422 312.34 380.962 312.34C382.242 312.34 383.452 312.06 384.612 311.5C385.762 310.94 386.742 310.16 387.562 309.16L388.642 310C387.702 311.18 386.562 312.1 385.222 312.74C383.882 313.39 382.462 313.72 380.962 313.72" fill="white"/>
<path d="M380.972 313.71C379.192 313.71 377.542 313.26 376.022 312.36C374.502 311.46 373.302 310.25 372.422 308.72C371.542 307.19 371.102 305.53 371.102 303.73C371.102 301.93 371.542 300.27 372.422 298.75C373.302 297.23 374.502 296.02 376.022 295.12C377.542 294.22 379.192 293.77 380.972 293.77C382.352 293.77 383.672 294.06 384.952 294.63C386.222 295.2 387.332 296.01 388.292 297.04L387.242 297.97C386.442 297.07 385.492 296.37 384.402 295.87C383.312 295.37 382.162 295.12 380.962 295.12C379.422 295.12 378.002 295.51 376.702 296.28C375.402 297.05 374.362 298.09 373.592 299.41C372.822 300.73 372.442 302.17 372.442 303.73C372.442 305.29 372.832 306.73 373.592 308.05C374.362 309.37 375.392 310.41 376.702 311.19C378.002 311.96 379.422 312.34 380.962 312.34C382.242 312.34 383.452 312.06 384.612 311.5C385.762 310.94 386.742 310.16 387.562 309.16L388.642 310C387.702 311.18 386.562 312.1 385.222 312.74C383.882 313.39 382.462 313.72 380.962 313.72L380.972 313.71Z" stroke="white" stroke-miterlimit="10"/>
<path d="M407.31 308.55L405 313.5H403.5L412.68 293.76L421.35 313.5H419.88L417.69 308.55H407.31ZM412.62 297.09L407.94 307.2H417.09L412.62 297.09Z" fill="white"/>
<path d="M407.31 308.55L405 313.5H403.5L412.68 293.76L421.35 313.5H419.88L417.69 308.55H407.31ZM412.62 297.09L407.94 307.2H417.09L412.62 297.09Z" stroke="white" stroke-miterlimit="10"/>
<path d="M404.011 91.6397C404.121 141.77 363.211 183.28 312.161 183.12C261.601 182.96 220.711 141.69 220.931 91.1597C221.151 40.5997 262.521 -0.300313 313.061 -0.00031325C363.271 0.299687 404.191 41.3197 404.021 91.6397M400.601 91.5697C400.691 43.3397 361.561 3.95969 313.481 3.41969C265.001 2.87969 224.811 41.8897 224.361 90.7197C223.911 139.57 263.251 179.25 311.661 179.68C361.171 180.12 400.711 139.87 400.611 91.5697" fill="white"/>
<path d="M372.059 66.9194C371.339 67.7794 370.649 68.6094 369.949 69.4494C358.059 58.7894 344.349 55.0394 328.649 58.1394C328.829 58.5194 328.949 58.8094 329.099 59.0994C331.449 63.7494 333.099 68.6394 334.009 73.7694C334.769 78.0594 335.039 82.3694 334.799 86.7194C334.419 93.5194 332.869 100.029 330.009 106.209C326.469 113.859 321.399 120.269 314.479 125.149C311.499 127.249 308.269 128.879 304.849 130.119C304.519 130.239 304.209 130.369 303.759 130.549C305.049 131.909 306.219 133.239 307.489 134.469C314.029 140.769 321.739 144.889 330.689 146.429C344.729 148.839 357.269 145.399 368.239 136.269C368.619 135.959 368.739 135.619 368.739 135.149C368.729 126.719 368.739 118.299 368.739 109.869C368.739 109.659 368.719 109.439 368.699 109.119C367.629 109.069 366.579 109.099 365.519 109.099C364.479 109.099 363.449 109.099 362.409 109.099H346.509V105.739H372.069C372.089 105.969 372.119 106.209 372.119 106.439C372.119 116.529 372.119 126.619 372.129 136.719C372.129 137.169 371.999 137.479 371.669 137.779C364.769 144.059 356.749 148.109 347.559 149.809C343.189 150.619 338.779 150.839 334.359 150.399C323.109 149.279 313.379 144.809 305.229 136.979C303.659 135.469 302.259 133.789 300.839 132.139C300.399 131.629 300.059 131.409 299.339 131.559C297.119 132.029 294.859 132.199 292.589 132.199C281.489 132.209 270.389 132.199 259.289 132.199H258.359V50.2894H285.379V53.6294H261.759V84.5094H283.349V87.8994H261.769V126.519C261.769 126.519 261.859 126.569 261.909 126.589C282.569 103.349 303.229 80.0994 323.969 56.7794C322.879 55.3194 321.869 53.8594 320.749 52.4994C316.339 47.1194 310.969 43.0494 304.419 40.5994C300.599 39.1694 296.649 38.4594 292.579 38.4594C284.809 38.4594 277.029 38.4594 269.259 38.4594H268.169V35.1394C268.329 35.1094 268.509 35.0594 268.689 35.0594C277.089 35.0594 285.489 34.9894 293.889 35.1094C300.669 35.2094 306.899 37.3194 312.649 40.8794C318.039 44.2294 322.419 48.6194 325.979 53.8494C326.219 54.2094 326.469 54.5694 326.709 54.9294C326.739 54.9694 326.789 54.9994 326.929 55.1294C337.739 52.5394 348.359 53.3494 358.639 57.9094C363.529 60.0694 369.309 63.9794 372.079 66.9494M325.719 59.8894C305.389 82.7594 285.129 105.549 264.879 128.339C264.809 128.419 264.759 128.519 264.699 128.609C264.689 128.629 264.699 128.659 264.699 128.689C264.699 128.719 264.729 128.739 264.769 128.809H265.629C274.549 128.809 283.469 128.809 292.389 128.809C297.829 128.809 302.979 127.609 307.839 125.179C314.629 121.779 319.899 116.719 323.939 110.339C328.749 102.739 331.139 94.3894 331.469 85.4294C331.709 78.8994 330.749 72.5494 328.559 66.3894C327.789 64.2094 326.829 62.0994 325.739 59.8894" fill="white"/>
<path d="M260.019 38.3795C259.029 38.3795 258.269 37.5895 258.289 36.5995C258.309 35.6195 259.109 34.8595 260.089 34.8895C261.019 34.9095 261.779 35.6895 261.779 36.6295C261.779 37.6095 260.999 38.3895 260.019 38.3795Z" fill="white"/>
</g>
<defs>
<clipPath id="clip0_3709_44267">
<rect width="628.25" height="314.24" fill="white"/>
</clipPath>
</defs>
</svg>
